HIERARCHY
ROOT Hips
{
    OFFSET 10.676104545593262 63.837493896484375 -15.733186721801758
    CHANNELS 6 Xposition Yposition Zposition Zrotation Xrotation Yrotation
    JOINT RightUpLeg
    {
        OFFSET -10.676104545593262 0.0 0.0
        CHANNELS 3 Zrotation Xrotation Yrotation
        JOINT RightLeg
        {
            OFFSET 0.0 -24.50452423095703 0.0
            CHANNELS 3 Zrotation Xrotation Yrotation
            JOINT RightFoot
            {
                OFFSET 0.0 -39.332969665527344 0.0
                CHANNELS 3 Zrotation Xrotation Yrotation
                End Site
                {
                    OFFSET 0.0 0.0 15.733186721801758
                }
            }
        }
    }
    JOINT LeftUpLeg
    {
        OFFSET 10.676104545593262 0.0 0.0
        CHANNELS 3 Zrotation Xrotation Yrotation
        JOINT LeftLeg
        {
            OFFSET 0.0 -24.50452423095703 0.0
            CHANNELS 3 Zrotation Xrotation Yrotation
            JOINT LeftFoot
            {
                OFFSET 0.0 -39.332969665527344 0.0
                CHANNELS 3 Zrotation Xrotation Yrotation
                End Site
                {
                    OFFSET 0.0 0.0 15.733186721801758
                }
            }
        }
    }
    JOINT Spine
    {
        OFFSET 0.0 19.17461585998535 0.0
        CHANNELS 3 Zrotation Xrotation Yrotation
        JOINT Spine3
        {
            OFFSET 0.0 23.550626754760742 0.0
            CHANNELS 3 Zrotation Xrotation Yrotation
            JOINT Neck
            {
                OFFSET 0.0 8.998724937438965 0.0
                CHANNELS 3 Zrotation Xrotation Yrotation
                End Site
                {
                    OFFSET 0.0 3.599490165710449 0.0
                }
            }
            JOINT LeftArm
            {
                OFFSET 11.515876770019531 0.0 0.0
                CHANNELS 3 Zrotation Xrotation Yrotation
                JOINT LeftForeArm
                {
                    OFFSET 23.326427459716797 0.0 0.0
                    CHANNELS 3 Zrotation Xrotation Yrotation
                    JOINT LeftHand
                    {
                        OFFSET 18.555707931518555 0.0 0.0
                        CHANNELS 3 Zrotation Xrotation Yrotation
                        End Site
                        {
                            OFFSET 7.422283172607422 0.0 0.0
                        }
                    }
                }
            }
            JOINT RightArm
            {
                OFFSET -11.515876770019531 0.0 0.0
                CHANNELS 3 Zrotation Xrotation Yrotation
                JOINT RightForeArm
                {
                    OFFSET -23.326427459716797 0.0 0.0
                    CHANNELS 3 Zrotation Xrotation Yrotation
                    JOINT RightHand
                    {
                        OFFSET -18.555707931518555 0.0 0.0
                        CHANNELS 3 Zrotation Xrotation Yrotation
                        End Site
                        {
                            OFFSET -7.422283172607422 0.0 0.0
                        }
                    }
                }
            }
        }
    }
}
MOTION
Frames: 7
Frame Time: 0.03333333333333333
0.00012101841275580227 44.77925109863281 -0.0007997063221409917 0.9827271983338652 -13.21067547745823 -16.927291537491193 -119.0152353948326 -56.84224207049249 -120.62093048799778 171.97692659422063 42.59637778709283 -152.66937613004265 3.1805546814635164e-15 2.2069531490250793e-32 7.951386703658791e-16 94.15132354543874 -54.04317150364603 98.43027611671044 -161.8293089893873 52.23967326537117 132.7629487827116 6.896728590703373e-33 -3.975693351829396e-16 1.987846675914698e-15 -1.7021977216567858 20.695899710617464 -0.34294831051147723 1.683315637748339e-07 -1.0865820588181482e-07 0.14977429769966022 -0.5531715023930122 4.333565414277205 178.58234056953563 119.5270685614779 -41.13064666947107 -146.34720906097823 4.1764987264363935e-06 4.344009206466051e-06 24.117032609069064 1.5902773407317582e-15 -8.827812596100317e-32 -6.361109362927033e-15 -118.44902710368632 -34.96101826977815 151.03171774324653 -1.014305276484836e-06 2.988011507615436e-08 -39.93107827399616 3.975693351829397e-15 0.0 0.0
0.0001209938563988544 44.779239654541016 -0.0007983020623214543 1.04354379220074 -13.064086600245147 -16.817642576473876 -118.58228437567496 -56.678790498167885 -120.14281640950367 171.81466922600438 42.834752844910824 -152.19414036431246 0.0 0.0 1.5902773407317582e-15 93.48521032129732 -53.94411521773786 97.67474735459992 -162.0844983431547 52.34470193371187 132.83303780356522 -5.517382872562698e-33 3.975693351829396e-16 1.5902773407317584e-15 -1.7443318702467745 20.574507019311135 -0.34118668216197695 -9.990279025757677e-08 -3.249439574266487e-08 -0.004624603837691971 -0.38494912446209845 4.370833309610157 178.93915993350652 120.74727414629074 -42.42503456298025 -145.30137037625477 2.968102845107224e-08 2.74216495759999e-07 23.783264161527313 3.1805546814635168e-15 1.7655625192200634e-31 6.3611093629270335e-15 -118.6388815698645 -35.53672868969663 150.8263277356795 5.68417455295465e-07 -1.6906038433333858e-06 -39.572007690050874 -8.74652537402467e-15 0.0 0.0
0.00011703005293384194 44.779232025146484 -0.0007904215017333627 1.0874894852609447 -12.84411017657505 -16.819512048890626 -117.76058285279494 -56.33070087195784 -119.27549599598404 171.62822086277686 42.94873133140146 -151.52075244279834 8.276074308844047e-33 7.951386703658792e-16 -1.1927080055488188e-15 92.56003858363653 -53.63286513126521 96.62356927422188 -162.11381262463473 52.60617761038874 132.37312831150606 -3.1805546814635168e-15 1.5902773407317584e-15 -2.782985346280577e-15 -1.7019246128842784 20.3345696789186 -0.36932131598250456 -2.073950823637364e-07 3.036117078882723e-07 -0.11284886645259702 -0.3739085839117629 4.187782238672857 179.22566418077778 122.12041240258262 -44.08328522048033 -143.9434907937755 1.9532730926148517e-06 6.904904369014628e-07 22.795776263662077 0.0 0.0 0.0 -118.90959578711164 -36.19294332980833 150.5920889729309 -3.5950547411798032e-06 -5.51421541704867e-06 -38.81910925490765 8.74652537402467e-15 -4.855296927855174e-31 -6.361109362927033e-15
0.00011894721683347598 44.779239654541016 -0.0007881091441959143 1.0793895911796891 -12.754847303381016 -16.812773388611685 -116.98261090603313 -56.14236548663328 -118.40435338889003 171.38983886931535 43.117850224277724 -150.90404843117224 2.2069531490250793e-32 -7.951386703658792e-16 3.1805546814635168e-15 91.44593925177391 -53.451966342015936 95.31983329412168 -162.06095054133277 53.073176733581256 131.8839468120119 8.276074308844047e-33 -3.975693351829396e-16 2.3854160110976376e-15 -1.690656184726339 20.258328819846625 -0.38926129893231465 4.239659571769863e-07 -5.179516096509402e-07 -0.16429622400313124 -0.03147613474605166 3.896303421772225 179.2836487877017 123.43652188094705 -45.46859156835815 -142.4734646484751 2.2769668754505054e-07 1.7681299385926791e-06 21.951012295871084 -3.1805546814635168e-15 -1.7655625192200634e-31 6.3611093629270335e-15 -119.10432399225883 -36.699250298086085 150.40055814073017 -1.7556706325355033e-06 -2.068146528892401e-06 -38.19645377756687 -3.975693351829395e-15 -2.2069531490250793e-31 6.361109362927032e-15
0.0001177511439891532 44.77924346923828 -0.00078864541137591 0.9819604852670969 -12.672944491319058 -16.8178458146638 -116.54430205048544 -56.13425641182457 -118.03015303063069 171.4354520813351 43.18222383612645 -150.83141399105818 0.0 0.0 0.0 90.89056873445267 -53.381339602135625 94.50753175525755 -162.19278261523007 53.20942421083862 131.86247861179336 0.0 0.0 -7.951386703658792e-16 -1.544337457836129 20.203809294401363 -0.40346290368735993 -1.1594761789214313e-07 -6.259393213541893e-07 -0.16095327663468115 -0.025120287449141316 3.8080189165415255 179.19440673305374 124.37528110124661 -46.58586157618479 -141.3378948764016 1.8029757516716935e-06 4.317557206982832e-06 20.59459571870069 0.0 0.0 0.0 -119.22020835078538 -37.227698073927534 150.08311111683813 -3.7340380144038134e-07 1.1341902606666036e-06 -37.03871673913849 2.385416011097637e-15 0.0 0.0
0.00010460826160851866 44.77922058105469 -0.0007882441277615726 0.9478045927365827 -12.545427097725742 -16.99379942743973 -116.30210262641934 -56.39054808412197 -117.75376005185568 171.15221633952527 43.29557936985888 -150.6892189342958 -8.276074308844047e-33 -7.951386703658791e-16 -1.1927080055488186e-15 90.41824431256454 -53.335702551897846 93.84910235288798 -162.29833591187506 53.32112221755947 131.8597516920821 3.1805546814635164e-15 8.827812596100317e-32 3.1805546814635164e-15 -1.5599083221831798 20.092896313694492 -0.375747475689838 -2.308663455202211e-07 4.148856130701148e-07 -0.1418495219567935 0.15035685144195898 3.819377152041385 179.37994782439273 124.8649630441467 -47.06298068681976 -140.73541334326 -3.2391566091683824e-06 -8.391148852245335e-07 20.102174250014386 0.0 -6.3611093629270335e-15 0.0 -119.19085073822467 -37.72347792735015 150.03399222567205 6.45100550406248e-06 -3.701447002283961e-06 -36.52044226393728 -9.54166404439055e-15 -6.3611093629270335e-15 -5.29668755766019e-31
8.977417746791616e-05 44.779212951660156 -0.0007933478336781263 0.9916064591153281 -12.389495800250911 -17.15867591504179 -116.26184227210425 -56.46085605022278 -117.6474234545793 171.16584766321105 43.51859068836456 -150.63721539796487 5.517382872562698e-33 -7.951386703658792e-16 7.951386703658792e-16 90.20625432340566 -53.18639823608869 93.639038841434 -162.61953656203806 53.53979287196934 131.95243824231858 2.758691436281349e-33 -3.975693351829396e-16 7.951386703658792e-16 -1.5476783506208835 20.007854276360472 -0.3912486037649146 -2.1222228167201392e-08 -6.727620879341079e-07 -0.13942575203935406 -0.02864050609540392 3.790316300986091 179.34162351283422 124.92361213976561 -47.16740533678257 -140.52056627204007 1.4625428638214747e-06 4.7063544609029735e-06 19.574961817100238 -6.361109362927033e-15 7.062250076880254e-31 -1.2722218725854065e-14 -118.6226107313929 -37.55856634073865 150.31404530726576 -1.4398673834017716e-06 2.091309344797868e-06 -35.90176835690381 0.0 6.3611093629270335e-15 0.0
